HIERARCHY
ROOT Spine
{
    OFFSET 0.0 0.0 -0.0
    CHANNELS 6 Xposition Yposition Zposition Zrotation Xrotation Yrotation
    JOINT ShoulderCenter
    {
        OFFSET 0.0 31.42022705078125 0.0
        CHANNELS 3 Zrotation Xrotation Yrotation
        JOINT LeftShoulder
        {
            OFFSET 17.00136947631836 0.0 0.0
            CHANNELS 3 Zrotation Xrotation Yrotation
            JOINT LeftElbow
            {
                OFFSET 30.429115295410156 0.0 0.0
                CHANNELS 3 Zrotation Xrotation Yrotation
                JOINT LeftHand
                {
                    OFFSET 28.5494384765625 0.0 0.0
                    CHANNELS 3 Zrotation Xrotation Yrotation
                    End Site
                    {
                        OFFSET 11.419776916503906 0.0 0.0
                    }
                }
            }
        }
        JOINT RightShoulder
        {
            OFFSET -17.00136947631836 0.0 0.0
            CHANNELS 3 Zrotation Xrotation Yrotation
            JOINT RightElbow
            {
                OFFSET -30.429115295410156 0.0 0.0
                CHANNELS 3 Zrotation Xrotation Yrotation
                JOINT RightHand
                {
                    OFFSET -28.5494384765625 0.0 0.0
                    CHANNELS 3 Zrotation Xrotation Yrotation
                    End Site
                    {
                        OFFSET -11.419776916503906 0.0 0.0
                    }
                }
            }
        }
        End Site
        {
            OFFSET 0.0 12.56809139251709 0.0
        }
    }
    JOINT LeftHip
    {
        OFFSET 17.6286928686453 -17.6286928686453 0.0
        CHANNELS 3 Zrotation Xrotation Yrotation
        JOINT LeftKnee
        {
            OFFSET 0.0 -35.00282287597656 0.0
            CHANNELS 3 Zrotation Xrotation Yrotation
            JOINT LeftFoot
            {
                OFFSET 0.0 -45.99578094482422 0.0
                CHANNELS 3 Zrotation Xrotation Yrotation
                End Site
                {
                    OFFSET 0.0 0.0 18.3983154296875
                }
            }
        }
    }
    JOINT RightHip
    {
        OFFSET -17.6286928686453 -17.6286928686453 0.0
        CHANNELS 3 Zrotation Xrotation Yrotation
        JOINT RightKnee
        {
            OFFSET 0.0 -35.00282287597656 0.0
            CHANNELS 3 Zrotation Xrotation Yrotation
            JOINT RightFoot
            {
                OFFSET 0.0 -45.99578094482422 0.0
                CHANNELS 3 Zrotation Xrotation Yrotation
                End Site
                {
                    OFFSET 0.0 0.0 18.3983154296875
                }
            }
        }
    }
}
MOTION
Frames: 9
Frame Time: 0.03333333333333333
44.60000228881836 -1.4000000953674316 133.1999969482422 6.115509551659925 -13.260614524387286 -175.53823856524048 4.217481859957189e-07 -3.080365668000009e-08 0.4917277712698011 103.86395571860412 -8.737377622330389 -172.89228058423734 -2.548515613317659e-06 -1.9828457558683882e-07 34.893830895363344 -6.361109362927035e-15 1.5902773407317588e-15 8.827812596100317e-32 -111.49355183860499 4.42344992299214 -166.3590144469644 4.080806304776709e-07 7.578212531298777e-06 -50.85983265820036 0.0 -1.5902773407317584e-15 0.0 1.4994238608208514 -25.787365820131175 22.526334255443633 11.593952360072073 14.783065508234618 -34.16416277755143 4.9696166897867443e-17 2.8152661630019625e-34 6.491561801033935e-16 -0.3145357876756237 -42.549239826028234 -39.932818337905104 -18.77039305098462 5.126082567461707 11.553356184611975 7.951386703658791e-16 1.1034765745125397e-32 1.5902773407317582e-15
45.29999923706055 -1.4000000953674316 132.0 5.194427806130594 -13.456333211351291 -175.32758670090024 3.991654761454459e-08 7.682869773790462e-07 0.6624905046061471 103.49941647939251 -10.795672828300123 -173.16329303338392 -1.192874282763853e-06 -1.5026702658845576e-06 35.34182745049518 0.0 0.0 0.0 -112.03577571183888 4.784096090568712 -166.75967204577688 2.3041067560830144e-06 -8.838679317842199e-07 -52.62757650772798 -6.3611093629270335e-15 -1.5902773407317584e-15 -8.827812596100317e-32 1.1031565761104503 -24.255338952256473 19.92569433355272 9.840791743045058 13.878164065299615 -30.703431629777615 9.93923337957349e-17 7.951386703658792e-16 -1.180283963824352e-15 -2.7984458866877544 -41.909156352769706 -42.1791598177089 -15.972090668373252 1.411633444955026 3.0701204234375377 7.951386703658794e-16 0.0 0.0
46.099998474121094 -1.4000000953674316 130.6999969482422 4.085611130554744 -13.652070848553988 -175.16239055172173 -3.0516218712263635e-07 7.906491090132121e-07 0.8740755529250336 103.12175718002534 -12.882977837322006 -173.4341028429396 -1.93175231255352e-06 -6.495791210149758e-07 35.450906098143996 0.0 0.0 0.0 -112.2949994369379 4.949238031135802 -167.37585307207047 -4.588424805892851e-07 1.3034930798065216e-06 -53.693456586945885 -6.3611093629270335e-15 -4.770832022195275e-15 -2.648343778830095e-31 0.5200385424612117 -22.868960474738653 17.97980202195755 8.65528026756878 13.095891157853293 -28.165204609427608 -9.93923337957349e-17 7.951386703658792e-16 1.8636062586700294e-17 -5.000111518844049 -41.326169069953814 -44.406027743018456 -13.608240499734476 -1.112266025858794 -2.3113217193272675 -1.5902773407317582e-15 4.1380371544220234e-32 -2.9817700138720468e-15
47.099998474121094 -1.600000023841858 129.3000030517578 2.973728532529796 -14.018096222015794 -175.26734407231424 2.61156369089451e-07 -3.8270878393671695e-07 1.0848170621008382 103.031779689253 -14.67677639779961 -173.9462900251732 -1.3876102480316017e-06 -9.804256467988177e-07 36.05017257436371 -6.361109362927033e-15 -2.385416011097637e-15 -1.3241718894150476e-31 -112.26679577568436 4.535379818491577 -168.69234996405623 1.091648118620483e-06 -5.815213418271556e-07 -54.1989384061652 0.0 0.0 -3.1805546814635168e-15 0.19343738391666063 -21.852548288580856 16.338803403400554 7.739304254886412 12.82808416030561 -27.0812281877089 -1.9878466759146977e-16 -3.4483642953516864e-34 1.9878466759146977e-16 -6.40663261529454 -41.20590831815829 -45.68209551901921 -12.294389338601082 -2.1559445846264893 -4.361102718501438 -3.1805546814635168e-15 -3.1805546814635168e-15 -2.3854160110976376e-15
48.20000076293945 -2.0 127.80000305175781 1.6737539846550569 -14.379989240730106 -175.44063025671355 1.308386885192048e-07 -2.694550509212532e-07 1.0892610947901997 102.64847858577023 -15.633698940188438 -174.54750648836014 3.0250256488168125e-07 9.118853637284037e-07 36.38680915157476 0.0 3.1805546814635168e-15 0.0 -111.74008517932505 4.050985644204601 -170.4989640031177 1.993298056070066e-06 3.4535552850398798e-06 -54.43511649632204 -6.3611093629270335e-15 0.0 0.0 -0.520131895891848 -21.134777374056522 14.972615030606326 7.579879873097004 12.91536179634379 -27.031112487546157 0.0 0.0 -1.7393658414253607e-16 -7.166881293867909 -41.30868557972461 -45.71789459499692 -12.406855493221913 -1.6634087607505317 -3.3733401913131424 1.5902773407317584e-15 1.1034765745125397e-32 7.951386703658792e-16
49.599998474121094 -2.200000047683716 126.19999694824219 0.5598744278643513 -15.128011016193378 -175.18495210715864 4.673383048345831e-08 4.467603039046202e-07 1.0708899836846535 102.44772907454012 -15.917187912744847 -174.9333130659282 2.2519179574637618e-06 3.888215610767788e-06 36.83208060341189 -8.827812596100317e-32 3.1805546814635168e-15 3.1805546814635168e-15 -110.90390655644599 3.2261999299611066 -172.49593901805764 -3.282894059620041e-06 6.525316818485565e-06 -54.03622780413001 8.827812596100317e-32 3.1805546814635168e-15 -3.1805546814635168e-15 -0.6849946387963682 -20.70391279536972 13.915026455024629 7.101751726014485 12.766629871182113 -26.930786363144787 1.9878466759146977e-16 -1.5902773407317584e-15 -1.0436195048552165e-15 -7.588059413125159 -42.039819169001134 -46.14341989342998 -13.609096565755152 -0.20798878931949505 -0.4443197652593358 0.0 0.0 2.9817700138720468e-15
51.099998474121094 -2.4000000953674316 124.69999694824219 -0.7489246617662625 -16.21573185335114 -174.94502717829647 7.469175849993695e-08 -1.3414399124640845e-08 0.8832354430686654 102.48450194521611 -16.49877557935617 -175.1677490061309 -4.076483190578654e-07 5.119756641457842e-06 37.35000162716781 6.3611093629270335e-15 -3.1805546814635168e-15 1.7655625192200634e-31 -109.90074297116267 2.350643037376712 -174.82892092009277 5.0017932440670306e-06 -5.802679327997705e-07 -53.41115340345724 0.0 0.0 -3.1805546814635168e-15 -1.3259633183500426 -21.225610883540142 13.452783362324753 7.470009569989851 13.426173183955482 -28.475162850485788 2.981770013872047e-16 1.681077593983947e-33 6.460501696722769e-16 -8.252570388223555 -43.803928739415596 -46.553546620243516 -15.992926603844314 1.5669940532480844 3.6154048400510312 0.0 0.0 6.559894030518505e-15
52.499996185302734 -2.700000047683716 123.09999084472656 -2.456733818449564 -17.73623337148937 -175.32044233403144 6.202229205674422e-08 1.8415935943174651e-06 0.9686365668482588 101.56363544871773 -15.117257310346256 -175.67429897893746 -3.882169927919522e-06 -4.441390553774276e-07 38.47652413392945 0.0 7.951386703658792e-16 0.0 -109.26173198108967 1.484557889559821 -177.41478827458033 4.296088914223706e-06 1.7415741563352968e-06 -52.793547706518126 -6.361109362927032e-15 -3.180554681463516e-15 -1.7655625192200634e-31 -2.3420203810350837 -23.686141891371538 17.356813577691273 9.931147003957195 15.93195518829134 -35.59162478150047 7.951386703658792e-16 1.2414111463266072e-32 1.7890620083232284e-15 -9.71130822676979 -46.37917528047428 -48.432094287910836 -18.090544438266594 3.5216838506873147 8.352606848147396 0.0 0.0 7.95138670365879e-15
53.89999771118164 -3.200000047683716 121.5999984741211 -4.004177128108889 -19.416062787135463 -176.06307936681426 1.1422058191355979e-07 5.4624683602478325e-08 1.1379389926351642 101.0991166460674 -13.955077734934925 -176.28942487992558 5.271987384225637e-07 -4.379576088551049e-07 40.137895283360145 0.0 0.0 0.0 -108.5573713003806 0.4481825079210933 179.88220376079738 -2.7453170814836522e-06 3.4586997237601907e-08 -52.099842473076244 0.0 0.0 3.180554681463516e-15 -2.5445979491785824 -27.37800323145768 23.325778002393943 13.207652206992634 19.42054594205806 -44.73744073697269 -5.793252016190833e-32 -3.1805546814635168e-15 -2.087239009710433e-15 -10.406165601958083 -49.201458898247715 -49.592086703535884 -20.25094992826181 5.106339034910044 12.063000156348975 0.0 0.0 7.951386703658791e-16
